#!OML:ASF H:\Terrain\Patient Classification 1\PLAYGROUND\JustinFriday\JustinFriday.ASF
:FULLY-SPECIFIED
:DEGREES
1795
root -14.3221 26.7899 -5.001 294.404 -2.60456 3.31775
lowerback 37.452 1.66078 0.892499
upperback 14.4241 2.41811 -0.0288458
thorax -2.46745 1.26658 -1.3063
lowerneck 27.3787 -14.5558 -9.47001
upperneck 1.47513 -21.6821 4.5297
head -2.02693 -11.1025 4.45539
rclavicle -2.90723e-014 2.15681e-014
rhumerus 27.2052 -12.7311 -47.2902
rradius 71.273
rwrist 13.767
rhand -4.92688 -12.6061
rfingers 7.12502
rthumb 20.8637 -41.5042
lclavicle -2.90723e-014 2.15681e-014
lhumerus 62.055 -0.773529 60.8351
lradius 46.9896
lwrist -16.0733
lhand 23.7833 2.31315
lfingers 7.12502
lthumb 48.0418 24.5064
rfemur -30.3566 5.49471 12.4668
rtibia 28.0235
rfoot 3.5574 -5.16399
rtoes 8.82395
lfemur -32.4754 3.9013 -12.3643
ltibia 30.6926
lfoot 0.582949 -0.346845
ltoes -15.2043
1796
root -14.3209 26.7929 -4.99888 294.382 -2.70324 3.27921
lowerback 37.9001 1.43968 1.48213
upperback 14.3147 2.32416 -0.513931
thorax -2.69585 1.26611 -2.1004
lowerneck 27.0536 -14.8004 -8.54174
upperneck 1.58775 -21.7073 4.41228
head -2.05146 -11.1064 4.29104
rclavicle 7.70291e-015 -5.36719e-015
rhumerus 26.9062 -13.2875 -47.8446
rradius 71.3792
rwrist 14.368
rhand -10.1942 -12.2064
rfingers 7.12502
rthumb 15.7966 -41.5819
lclavicle 7.70291e-015 -5.36719e-015
lhumerus 62.3354 -1.05648 59.9981
lradius 46.939
lwrist -16.0043
lhand 23.4567 1.92136
lfingers 7.12502
lthumb 47.7406 24.2543
rfemur -30.1407 6.44341 12.3242
rtibia 28.093
rfoot 3.17115 -6.12754
rtoes 9.35471
lfemur -32.1913 3.76087 -12.2132
ltibia 30.6004
lfoot 0.49847 0.460436
ltoes 0.629168
1797
root -14.3189 26.7991 -5.00906 294.454 -2.73881 3.24152
lowerback 37.3712 1.08039 2.30312
upperback 15.7485 2.0898 -1.65117
thorax -1.05142 1.29246 -3.60975
lowerneck 21.7106 -15.8087 -4.79921
upperneck 3.40871 -21.8593 2.97666
head -1.54096 -11.0912 3.32938
rclavicle -2.55438e-014 2.82274e-014
rhumerus 27.8226 -15.2827 -49.5364
rradius 70.8651
rwrist 16.9918
rhand -7.61949 -11.4497
rfingers 7.12502
rthumb 18.2749 -40.6112
lclavicle -2.55438e-014 2.82274e-014
lhumerus 64.9988 -0.375794 58.0882
lradius 47.0766
lwrist -15.4626
lhand 23.089 1.73565
lfingers 7.12502
lthumb 47.4011 24.2231
rfemur -30.0322 6.49948 12.3998
rtibia 28.1702
rfoot 2.78491 -6.19428
rtoes 7.85267
lfemur -32.0137 3.60638 -12.1335
ltibia 30.5538
lfoot -0.0844366 1.11098
ltoes 11.2116
1798
root -14.319 26.8043 -5.01313 294.605 -2.5763 3.2729
lowerback 37.1232 1.38077 1.39852
upperback 14.7624 2.2011 -0.65766
thorax -2.10165 1.21799 -2.14964
lowerneck 27.4946 -14.6612 -8.37855
upperneck 1.41108 -21.4805 4.68695
head -2.16588 -11.0051 4.38618
rclavicle 6.36111e-015 -9.74045e-015
rhumerus 26.7189 -13.2935 -47.3782
rradius 70.929
rwrist 16.32
rhand -11.1481 -11.0794
rfingers 7.12502
rthumb 14.8779 -40.5252
lclavicle 6.36111e-015 -9.74045e-015
lhumerus 62.553 -0.40495 60.6304
lradius 47.4549
lwrist -19.5995
lhand 26.4744 0.277427
lfingers 7.12502
lthumb 50.5113 21.2275
rfemur -29.9983 5.96132 12.391
rtibia 28.1707
rfoot 2.66445 -5.78967
rtoes 6.23736
lfemur -31.9485 3.52297 -12.3057
ltibia 30.5505
lfoot -0.918557 1.43151
ltoes 16.5524
1799
root -14.3206 26.8065 -5.00233 294.816 -2.45196 3.28345
lowerback 36.2616 1.25982 1.60697
upperback 16.3403 2.08265 -1.32743
thorax -0.07734 1.24986 -2.87264
lowerneck 20.7405 -15.2516 -5.31575
upperneck 4.46404 -21.2276 2.89888
head -1.00751 -10.7964 3.16286
rclavicle -1.61016e-014 1.43125e-014
rhumerus 29.9365 -15.6387 -50.7847
rradius 70.2455
rwrist 18.1982
rhand -11.5215 -10.7191
rfingers 7.12502
rthumb 14.5181 -40.1911
lclavicle -1.61016e-014 1.43125e-014
lhumerus 65.1594 0.0551856 59.3829
lradius 47.1384
lwrist -16.413
lhand 22.5696 1.31127
lfingers 7.12502
lthumb 46.9209 24.0122
rfemur -29.9836 5.45544 12.3377
rtibia 28.0988
rfoot 2.81815 -5.52154
rtoes 8.53153
lfemur -32.0057 3.34247 -12.4214
ltibia 30.6466
lfoot 1.47243 0.036053
ltoes -1.63414
